<?xml version="1.0" encoding="utf-8"?>
<!-- Generator: Adobe Illustrator 24.0.0, SVG Export Plug-In . SVG Version: 6.00 Build 0)  -->
<svg version="1.1" id="圖層_1" xmlns="http://www.w3.org/2000/svg" xmlns:xlink="http://www.w3.org/1999/xlink" x="0px" y="0px"
	 viewBox="0 0 21 43" style="enable-background:new 0 0 21 43;" xml:space="preserve">
<style type="text/css">
	.st0{clip-path:url(#SVGID_2_);}
	.st1{fill:#CF641C;}
</style>
<g>
	<defs>
		<rect id="SVGID_1_" y="0" width="21" height="43"/>
	</defs>
	<clipPath id="SVGID_2_">
		<use xlink:href="#SVGID_1_"  style="overflow:visible;"/>
	</clipPath>
	<g class="st0">
		<path class="st1" d="M6.5,43c0-5.8,0-11.5,0-17.3c0-0.7,0-1.4,0-2.2c-1.8,0-3.6,0-5.4,0c-1,0-1,0-1-1.1c0-2,0-4,0-6
			c0-0.7,0.2-0.9,0.8-0.9c1.8,0,3.7,0,5.6,0c0-0.3,0-0.7,0-1c0-2.3-0.1-4.7,0.2-7c0.5-4.2,3.3-7.1,7.1-7.5c2.1-0.2,4.3,0,6.5,0
			c0.6,0,0.8,0.3,0.8,1c0,2,0,4,0,6.2c-0.9,0-1.8,0-2.6,0c-0.9,0-1.9,0-2.8,0.2c-1.1,0.2-1.7,0.8-1.8,2c-0.1,2,0,3.9,0,6
			c1.1,0,2.2,0,3.4,0c1.1,0,2.3,0,3.5,0c-0.2,1.4-0.3,2.7-0.5,3.9c-0.1,1.1-0.3,2.2-0.4,3.3c-0.1,0.6-0.3,0.8-0.8,0.8
			c-1.5,0-3,0-4.5,0c-0.2,0-0.5,0-0.8,0c0,0.4,0,0.7,0,1c0,5.9,0,11.8,0,17.7c0,0.3,0,0.6,0,0.8C11.2,43,8.9,43,6.5,43z"/>
	</g>
</g>
</svg>
