<?xml version="1.0" encoding="utf-8"?>
<!-- Generator: Adobe Illustrator 24.0.0, SVG Export Plug-In . SVG Version: 6.00 Build 0)  -->
<svg version="1.1" id="圖層_1" xmlns="http://www.w3.org/2000/svg" xmlns:xlink="http://www.w3.org/1999/xlink" x="0px" y="0px"
	 viewBox="0 0 52 51" style="enable-background:new 0 0 52 51;" xml:space="preserve">
<style type="text/css">
	.st0{clip-path:url(#SVGID_2_);}
	.st1{fill:#CF641C;}
</style>
<g>
	<defs>
		<rect id="SVGID_1_" y="0" width="52" height="51"/>
	</defs>
	<clipPath id="SVGID_2_">
		<use xlink:href="#SVGID_1_"  style="overflow:visible;"/>
	</clipPath>
	<g class="st0">
		<path class="st1" d="M52,25.9c0,3,0.1,6,0,9c-0.2,9.3-4.5,14.9-13.4,15.6c-8.7,0.7-17.6,0.5-26.3-0.3c-7.4-0.7-11.8-6.1-12-13.4
			C0,29.3,0,21.6,0.2,14c0.3-7.3,4.7-12.8,12-13.4c9.1-0.7,18.3-0.8,27.3-0.1c7.7,0.6,12,6.1,12.3,13.7C52.2,18.1,52,22,52,25.9
			C52,25.9,52,25.9,52,25.9z M46.6,13.9c-0.7-4.7-3.2-8.7-8.7-8.9C30,4.9,22.1,4.9,14.2,5c-5.3,0.1-8.6,3.2-8.9,8.3
			C5,21.4,5,29.6,5.4,37.8c0.3,4.8,3.4,7.9,8.5,8C22,46,30,46,38.1,45.8c2.9-0.1,5.9-1.5,7.2-4.1c0.7-1.4,1-3,1.2-4.5
			C47.7,29.6,46.6,14.1,46.6,13.9z"/>
		<path class="st1" d="M39.4,25.5c0,7.4-5.8,13-13.4,13c-7.5,0-13.3-5.7-13.3-13.2c0-7.4,5.8-13,13.4-13
			C33.7,12.4,39.4,18.1,39.4,25.5z M26.1,33.8c4.6,0,8.6-4,8.5-8.5c-0.1-4.3-3.9-8.1-8.3-8.2c-4.6-0.1-8.7,3.7-8.8,8.2
			C17.4,29.8,21.4,33.8,26.1,33.8z"/>
		<path class="st1" d="M39.9,14.2c-1.4,0-2.6-1.2-2.6-2.6c0-1.4,1.2-2.6,2.6-2.6c1.4,0,2.6,1.2,2.6,2.6C42.5,13,41.3,14.2,39.9,14.2
			z"/>
		<g>
			<defs>
				<rect id="SVGID_3_" x="-64.8" y="2.1" width="182.4" height="47.7"/>
			</defs>
			<clipPath id="SVGID_4_">
				<use xlink:href="#SVGID_3_"  style="overflow:visible;"/>
			</clipPath>
		</g>
	</g>
</g>
</svg>
